<mxfile host="app.diagrams.net" modified="2021-11-02T08:21:02.454Z" agent="5.0 (Windows)" etag="6WjB8ehTWpTTbQ0XD1cD" version="15.6.5" type="github">
  <diagram name="Page-1" id="10a91c8b-09ff-31b1-d368-03940ed4cc9e">
    <mxGraphModel dx="1185" dy="518" grid="1" gridSize="10" guides="1" tooltips="1" connect="1" arrows="1" fold="1" page="1" pageScale="1" pageWidth="1100" pageHeight="850" background="none" math="0" shadow="0">
      <root>
        <mxCell id="0" />
        <mxCell id="1" parent="0" />
        <mxCell id="62893188c0fa7362-1" value="C(6, 4)" style="whiteSpace=wrap;html=1;rounded=1;shadow=1;labelBackgroundColor=none;strokeWidth=1;fontFamily=Helvetica;fontSize=12;align=center;fillColor=default;strokeColor=default;fontColor=default;arcSize=0;" parent="1" vertex="1">
          <mxGeometry x="660" y="20" width="60" height="20" as="geometry" />
        </mxCell>
        <mxCell id="62893188c0fa7362-2" value="C(5, 3)" style="whiteSpace=wrap;html=1;rounded=1;shadow=1;labelBackgroundColor=none;strokeWidth=1;fontFamily=Verdana;fontSize=12;align=center;fillColor=default;strokeColor=default;fontColor=default;" parent="1" vertex="1">
          <mxGeometry x="485" y="110" width="70" height="20" as="geometry" />
        </mxCell>
        <mxCell id="62893188c0fa7362-3" value="C(5, 4)" style="whiteSpace=wrap;html=1;rounded=1;shadow=1;labelBackgroundColor=none;strokeWidth=1;fontFamily=Verdana;fontSize=12;align=center;fillColor=default;strokeColor=default;fontColor=default;" parent="1" vertex="1">
          <mxGeometry x="870" y="120" width="70" height="20" as="geometry" />
        </mxCell>
        <mxCell id="LCl7SwJlQsZYBwVPoc9T-2" value="C(2, 1)" style="whiteSpace=wrap;html=1;rounded=1;shadow=1;labelBackgroundColor=none;strokeWidth=1;fontFamily=Verdana;fontSize=12;align=center;fillColor=#d5e8d4;strokeColor=#82b366;fontColor=default;" vertex="1" parent="1">
          <mxGeometry x="760" y="280" width="70" height="20" as="geometry" />
        </mxCell>
        <mxCell id="LCl7SwJlQsZYBwVPoc9T-3" value="C(4, 3)" style="whiteSpace=wrap;html=1;rounded=1;shadow=1;labelBackgroundColor=none;strokeWidth=1;fontFamily=Verdana;fontSize=12;align=center;fillColor=#dae8fc;strokeColor=#6c8ebf;fontColor=default;" vertex="1" parent="1">
          <mxGeometry x="840" y="170" width="70" height="20" as="geometry" />
        </mxCell>
        <mxCell id="LCl7SwJlQsZYBwVPoc9T-4" value="C(4, 4)" style="whiteSpace=wrap;html=1;rounded=1;shadow=1;labelBackgroundColor=none;strokeWidth=1;fontFamily=Verdana;fontSize=12;align=center;fillColor=default;strokeColor=default;fontColor=default;" vertex="1" parent="1">
          <mxGeometry x="950" y="170" width="70" height="20" as="geometry" />
        </mxCell>
        <mxCell id="LCl7SwJlQsZYBwVPoc9T-5" value="C(4, 2)" style="whiteSpace=wrap;html=1;rounded=1;shadow=1;labelBackgroundColor=none;strokeWidth=1;fontFamily=Verdana;fontSize=12;align=center;fillColor=default;strokeColor=default;fontColor=default;" vertex="1" parent="1">
          <mxGeometry x="350" y="170" width="70" height="20" as="geometry" />
        </mxCell>
        <mxCell id="LCl7SwJlQsZYBwVPoc9T-7" value="C(3, 3)" style="whiteSpace=wrap;html=1;rounded=1;shadow=1;labelBackgroundColor=none;strokeWidth=1;fontFamily=Verdana;fontSize=12;align=center;fillColor=#a0522d;strokeColor=#6D1F00;fontColor=#ffffff;" vertex="1" parent="1">
          <mxGeometry x="920" y="230" width="70" height="20" as="geometry" />
        </mxCell>
        <mxCell id="LCl7SwJlQsZYBwVPoc9T-8" value="C(3, 1)" style="whiteSpace=wrap;html=1;rounded=1;shadow=1;labelBackgroundColor=none;strokeWidth=1;fontFamily=Verdana;fontSize=12;align=center;fillColor=default;strokeColor=default;fontColor=default;arcSize=33;" vertex="1" parent="1">
          <mxGeometry x="270" y="220" width="60" height="20" as="geometry" />
        </mxCell>
        <mxCell id="LCl7SwJlQsZYBwVPoc9T-14" value="C(2, 0)" style="whiteSpace=wrap;html=1;rounded=1;shadow=1;labelBackgroundColor=none;strokeWidth=1;fontFamily=Verdana;fontSize=12;align=center;fillColor=default;strokeColor=default;fontColor=default;" vertex="1" parent="1">
          <mxGeometry x="150" y="280" width="70" height="20" as="geometry" />
        </mxCell>
        <mxCell id="LCl7SwJlQsZYBwVPoc9T-16" value="C(4, 3)" style="whiteSpace=wrap;html=1;rounded=1;shadow=1;labelBackgroundColor=none;strokeWidth=1;fontFamily=Verdana;fontSize=12;align=center;fillColor=#dae8fc;strokeColor=#6c8ebf;fontColor=default;" vertex="1" parent="1">
          <mxGeometry x="600" y="180" width="70" height="20" as="geometry" />
        </mxCell>
        <mxCell id="LCl7SwJlQsZYBwVPoc9T-19" value="C(3, 3)" style="whiteSpace=wrap;html=1;rounded=1;shadow=1;labelBackgroundColor=none;strokeWidth=1;fontFamily=Verdana;fontSize=12;align=center;fillColor=#a0522d;strokeColor=#6D1F00;fontColor=#ffffff;" vertex="1" parent="1">
          <mxGeometry x="700" y="230" width="70" height="20" as="geometry" />
        </mxCell>
        <mxCell id="LCl7SwJlQsZYBwVPoc9T-20" value="C(2, 1)" style="whiteSpace=wrap;html=1;rounded=1;shadow=1;labelBackgroundColor=none;strokeWidth=1;fontFamily=Verdana;fontSize=12;align=center;fillColor=default;strokeColor=default;fontColor=default;" vertex="1" parent="1">
          <mxGeometry x="250" y="280" width="60" height="20" as="geometry" />
        </mxCell>
        <mxCell id="LCl7SwJlQsZYBwVPoc9T-23" value="C(1, 1)" style="whiteSpace=wrap;html=1;rounded=1;shadow=1;labelBackgroundColor=none;strokeWidth=1;fontFamily=Verdana;fontSize=12;align=center;fillColor=#008a00;strokeColor=#005700;fontColor=#ffffff;" vertex="1" parent="1">
          <mxGeometry x="610" y="340" width="70" height="20" as="geometry" />
        </mxCell>
        <mxCell id="LCl7SwJlQsZYBwVPoc9T-25" value="C(3, 2)" style="whiteSpace=wrap;html=1;rounded=1;shadow=1;labelBackgroundColor=none;strokeWidth=1;fontFamily=Verdana;fontSize=12;align=center;fillColor=#f8cecc;strokeColor=#b85450;fontColor=default;" vertex="1" parent="1">
          <mxGeometry x="580" y="230" width="70" height="20" as="geometry" />
        </mxCell>
        <mxCell id="LCl7SwJlQsZYBwVPoc9T-26" value="C(1, 0)" style="whiteSpace=wrap;html=1;rounded=1;shadow=1;labelBackgroundColor=none;strokeWidth=1;fontFamily=Verdana;fontSize=12;align=center;fillColor=#6a00ff;strokeColor=#3700CC;fontColor=#ffffff;" vertex="1" parent="1">
          <mxGeometry x="515" y="340" width="70" height="20" as="geometry" />
        </mxCell>
        <mxCell id="LCl7SwJlQsZYBwVPoc9T-27" value="C(1, 1)" style="whiteSpace=wrap;html=1;rounded=1;shadow=1;labelBackgroundColor=none;strokeWidth=1;fontFamily=Verdana;fontSize=12;align=center;fillColor=#008a00;strokeColor=#005700;fontColor=#ffffff;" vertex="1" parent="1">
          <mxGeometry x="260" y="340" width="70" height="20" as="geometry" />
        </mxCell>
        <mxCell id="LCl7SwJlQsZYBwVPoc9T-31" value="" style="endArrow=none;html=1;rounded=0;labelBackgroundColor=default;fontFamily=Helvetica;fontColor=default;strokeColor=default;fillColor=default;exitX=0.54;exitY=0.05;exitDx=0;exitDy=0;exitPerimeter=0;entryX=0.5;entryY=1;entryDx=0;entryDy=0;" edge="1" parent="1" source="LCl7SwJlQsZYBwVPoc9T-3" target="62893188c0fa7362-3">
          <mxGeometry width="50" height="50" relative="1" as="geometry">
            <mxPoint x="840" y="220" as="sourcePoint" />
            <mxPoint x="890" y="170" as="targetPoint" />
          </mxGeometry>
        </mxCell>
        <mxCell id="LCl7SwJlQsZYBwVPoc9T-32" value="" style="endArrow=none;html=1;rounded=0;labelBackgroundColor=default;fontFamily=Helvetica;fontColor=default;strokeColor=default;fillColor=default;entryX=0.5;entryY=1;entryDx=0;entryDy=0;exitX=0.546;exitY=0.05;exitDx=0;exitDy=0;exitPerimeter=0;startArrow=none;" edge="1" parent="1" source="LCl7SwJlQsZYBwVPoc9T-41" target="LCl7SwJlQsZYBwVPoc9T-3">
          <mxGeometry width="50" height="50" relative="1" as="geometry">
            <mxPoint x="780" y="280" as="sourcePoint" />
            <mxPoint x="830" y="230" as="targetPoint" />
          </mxGeometry>
        </mxCell>
        <mxCell id="LCl7SwJlQsZYBwVPoc9T-33" value="" style="endArrow=none;html=1;rounded=0;labelBackgroundColor=default;fontFamily=Helvetica;fontColor=default;strokeColor=default;fillColor=default;exitX=0.626;exitY=0.05;exitDx=0;exitDy=0;exitPerimeter=0;" edge="1" parent="1" source="LCl7SwJlQsZYBwVPoc9T-4" target="62893188c0fa7362-3">
          <mxGeometry width="50" height="50" relative="1" as="geometry">
            <mxPoint x="847.8" y="201" as="sourcePoint" />
            <mxPoint x="900" y="180" as="targetPoint" />
          </mxGeometry>
        </mxCell>
        <mxCell id="LCl7SwJlQsZYBwVPoc9T-34" value="" style="endArrow=none;html=1;rounded=0;labelBackgroundColor=default;fontFamily=Helvetica;fontColor=default;strokeColor=default;fillColor=default;exitX=0.5;exitY=0;exitDx=0;exitDy=0;entryX=0.5;entryY=1;entryDx=0;entryDy=0;" edge="1" parent="1" source="LCl7SwJlQsZYBwVPoc9T-7" target="LCl7SwJlQsZYBwVPoc9T-3">
          <mxGeometry width="50" height="50" relative="1" as="geometry">
            <mxPoint x="857.8" y="211" as="sourcePoint" />
            <mxPoint x="910" y="190" as="targetPoint" />
          </mxGeometry>
        </mxCell>
        <mxCell id="LCl7SwJlQsZYBwVPoc9T-37" value="" style="endArrow=none;html=1;rounded=0;labelBackgroundColor=default;fontFamily=Helvetica;fontColor=default;strokeColor=default;fillColor=default;exitX=0.583;exitY=0.993;exitDx=0;exitDy=0;exitPerimeter=0;entryX=0.5;entryY=0;entryDx=0;entryDy=0;" edge="1" parent="1" source="62893188c0fa7362-1" target="62893188c0fa7362-3">
          <mxGeometry width="50" height="50" relative="1" as="geometry">
            <mxPoint x="847.8" y="201" as="sourcePoint" />
            <mxPoint x="900" y="180" as="targetPoint" />
          </mxGeometry>
        </mxCell>
        <mxCell id="LCl7SwJlQsZYBwVPoc9T-41" value="C(3, 2)" style="whiteSpace=wrap;html=1;rounded=1;shadow=1;labelBackgroundColor=none;strokeWidth=1;fontFamily=Verdana;fontSize=12;align=center;fillColor=#f8cecc;strokeColor=#b85450;fontColor=default;" vertex="1" parent="1">
          <mxGeometry x="800" y="230" width="70" height="20" as="geometry" />
        </mxCell>
        <mxCell id="LCl7SwJlQsZYBwVPoc9T-43" value="" style="endArrow=none;html=1;rounded=0;labelBackgroundColor=default;fontFamily=Helvetica;fontColor=default;strokeColor=#1A2414;fillColor=#d5e8d4;entryX=0.5;entryY=1;entryDx=0;entryDy=0;exitX=0.546;exitY=0.05;exitDx=0;exitDy=0;exitPerimeter=0;" edge="1" parent="1" source="LCl7SwJlQsZYBwVPoc9T-2" target="LCl7SwJlQsZYBwVPoc9T-41">
          <mxGeometry width="50" height="50" relative="1" as="geometry">
            <mxPoint x="678.22" y="291" as="sourcePoint" />
            <mxPoint x="835" y="210" as="targetPoint" />
          </mxGeometry>
        </mxCell>
        <mxCell id="LCl7SwJlQsZYBwVPoc9T-44" value="C(1, 1)" style="whiteSpace=wrap;html=1;rounded=1;shadow=1;labelBackgroundColor=none;strokeWidth=1;fontFamily=Verdana;fontSize=12;align=center;fillColor=#008a00;strokeColor=#005700;fontColor=#ffffff;" vertex="1" parent="1">
          <mxGeometry x="810" y="340" width="70" height="20" as="geometry" />
        </mxCell>
        <mxCell id="LCl7SwJlQsZYBwVPoc9T-13" value="C(1, 0)" style="whiteSpace=wrap;html=1;rounded=1;shadow=1;labelBackgroundColor=none;strokeWidth=1;fontFamily=Verdana;fontSize=12;align=center;fillColor=#6a00ff;strokeColor=#3700CC;fontColor=#ffffff;" vertex="1" parent="1">
          <mxGeometry x="715" y="340" width="70" height="20" as="geometry" />
        </mxCell>
        <mxCell id="LCl7SwJlQsZYBwVPoc9T-45" value="" style="endArrow=none;html=1;rounded=0;labelBackgroundColor=default;fontFamily=Helvetica;fontColor=default;strokeColor=default;fillColor=default;exitX=0.5;exitY=1;exitDx=0;exitDy=0;" edge="1" parent="1" source="LCl7SwJlQsZYBwVPoc9T-2" target="LCl7SwJlQsZYBwVPoc9T-13">
          <mxGeometry width="50" height="50" relative="1" as="geometry">
            <mxPoint x="675" y="300" as="sourcePoint" />
            <mxPoint x="605" y="350" as="targetPoint" />
          </mxGeometry>
        </mxCell>
        <mxCell id="LCl7SwJlQsZYBwVPoc9T-46" value="" style="endArrow=none;html=1;rounded=0;labelBackgroundColor=default;fontFamily=Helvetica;fontColor=default;strokeColor=default;fillColor=default;exitX=0.5;exitY=1;exitDx=0;exitDy=0;entryX=0.602;entryY=0.079;entryDx=0;entryDy=0;entryPerimeter=0;" edge="1" parent="1" source="LCl7SwJlQsZYBwVPoc9T-2" target="LCl7SwJlQsZYBwVPoc9T-44">
          <mxGeometry width="50" height="50" relative="1" as="geometry">
            <mxPoint x="685" y="310" as="sourcePoint" />
            <mxPoint x="637" y="350" as="targetPoint" />
          </mxGeometry>
        </mxCell>
        <mxCell id="LCl7SwJlQsZYBwVPoc9T-50" value="" style="endArrow=none;html=1;rounded=0;labelBackgroundColor=default;fontFamily=Helvetica;fontColor=default;strokeColor=default;fillColor=default;entryX=0.5;entryY=1;entryDx=0;entryDy=0;startArrow=none;" edge="1" parent="1" source="LCl7SwJlQsZYBwVPoc9T-47" target="LCl7SwJlQsZYBwVPoc9T-41">
          <mxGeometry width="50" height="50" relative="1" as="geometry">
            <mxPoint x="805" y="290" as="sourcePoint" />
            <mxPoint x="755" y="260" as="targetPoint" />
          </mxGeometry>
        </mxCell>
        <mxCell id="LCl7SwJlQsZYBwVPoc9T-47" value="C(2, 2)" style="whiteSpace=wrap;html=1;rounded=1;shadow=1;labelBackgroundColor=none;strokeWidth=1;fontFamily=Verdana;fontSize=12;align=center;fillColor=#fff2cc;strokeColor=#d6b656;fontColor=default;" vertex="1" parent="1">
          <mxGeometry x="870" y="280" width="70" height="20" as="geometry" />
        </mxCell>
        <mxCell id="LCl7SwJlQsZYBwVPoc9T-61" value="" style="endArrow=none;html=1;rounded=0;labelBackgroundColor=default;fontFamily=Helvetica;fontColor=default;strokeColor=default;fillColor=default;entryX=0.5;entryY=0;entryDx=0;entryDy=0;exitX=0.5;exitY=1;exitDx=0;exitDy=0;" edge="1" parent="1" source="62893188c0fa7362-1" target="62893188c0fa7362-2">
          <mxGeometry width="50" height="50" relative="1" as="geometry">
            <mxPoint x="718.2199999999998" y="291" as="sourcePoint" />
            <mxPoint x="775" y="240" as="targetPoint" />
          </mxGeometry>
        </mxCell>
        <mxCell id="LCl7SwJlQsZYBwVPoc9T-62" value="" style="endArrow=none;html=1;rounded=0;labelBackgroundColor=default;fontFamily=Helvetica;fontColor=default;strokeColor=default;fillColor=default;entryX=0.5;entryY=1;entryDx=0;entryDy=0;exitX=0.5;exitY=0;exitDx=0;exitDy=0;" edge="1" parent="1" source="LCl7SwJlQsZYBwVPoc9T-16" target="62893188c0fa7362-2">
          <mxGeometry width="50" height="50" relative="1" as="geometry">
            <mxPoint x="600" y="30" as="sourcePoint" />
            <mxPoint x="365" y="40" as="targetPoint" />
          </mxGeometry>
        </mxCell>
        <mxCell id="LCl7SwJlQsZYBwVPoc9T-63" value="" style="endArrow=none;html=1;rounded=0;labelBackgroundColor=default;fontFamily=Helvetica;fontColor=default;strokeColor=default;fillColor=default;entryX=0.5;entryY=0;entryDx=0;entryDy=0;" edge="1" parent="1" source="LCl7SwJlQsZYBwVPoc9T-16" target="LCl7SwJlQsZYBwVPoc9T-19">
          <mxGeometry width="50" height="50" relative="1" as="geometry">
            <mxPoint x="510" y="130" as="sourcePoint" />
            <mxPoint x="415" y="90" as="targetPoint" />
          </mxGeometry>
        </mxCell>
        <mxCell id="LCl7SwJlQsZYBwVPoc9T-65" value="" style="endArrow=none;html=1;rounded=0;labelBackgroundColor=default;fontFamily=Helvetica;fontColor=default;strokeColor=default;fillColor=default;exitX=0.75;exitY=0;exitDx=0;exitDy=0;entryX=0.5;entryY=1;entryDx=0;entryDy=0;" edge="1" parent="1" source="LCl7SwJlQsZYBwVPoc9T-5" target="62893188c0fa7362-2">
          <mxGeometry width="50" height="50" relative="1" as="geometry">
            <mxPoint x="635" y="200" as="sourcePoint" />
            <mxPoint x="360" y="50" as="targetPoint" />
          </mxGeometry>
        </mxCell>
        <mxCell id="LCl7SwJlQsZYBwVPoc9T-66" value="" style="endArrow=none;html=1;rounded=0;labelBackgroundColor=default;fontFamily=Helvetica;fontColor=default;strokeColor=default;fillColor=default;exitX=0.5;exitY=1;exitDx=0;exitDy=0;" edge="1" parent="1" source="LCl7SwJlQsZYBwVPoc9T-5">
          <mxGeometry width="50" height="50" relative="1" as="geometry">
            <mxPoint x="245" y="130" as="sourcePoint" />
            <mxPoint x="300" y="220" as="targetPoint" />
          </mxGeometry>
        </mxCell>
        <mxCell id="LCl7SwJlQsZYBwVPoc9T-67" value="" style="endArrow=none;html=1;rounded=0;labelBackgroundColor=default;fontFamily=Helvetica;fontColor=default;strokeColor=default;fillColor=default;exitX=0.5;exitY=0;exitDx=0;exitDy=0;entryX=0.5;entryY=1;entryDx=0;entryDy=0;" edge="1" parent="1" source="LCl7SwJlQsZYBwVPoc9T-14" target="LCl7SwJlQsZYBwVPoc9T-8">
          <mxGeometry width="50" height="50" relative="1" as="geometry">
            <mxPoint x="95" y="210" as="sourcePoint" />
            <mxPoint x="34.02999999999997" y="228" as="targetPoint" />
          </mxGeometry>
        </mxCell>
        <mxCell id="LCl7SwJlQsZYBwVPoc9T-68" value="" style="endArrow=none;html=1;rounded=0;labelBackgroundColor=default;fontFamily=Helvetica;fontColor=default;strokeColor=default;fillColor=default;entryX=0.5;entryY=1;entryDx=0;entryDy=0;exitX=0.572;exitY=-0.088;exitDx=0;exitDy=0;exitPerimeter=0;" edge="1" parent="1" source="LCl7SwJlQsZYBwVPoc9T-25" target="LCl7SwJlQsZYBwVPoc9T-16">
          <mxGeometry width="50" height="50" relative="1" as="geometry">
            <mxPoint x="445" y="160" as="sourcePoint" />
            <mxPoint x="525" y="130" as="targetPoint" />
          </mxGeometry>
        </mxCell>
        <mxCell id="LCl7SwJlQsZYBwVPoc9T-69" value="" style="endArrow=none;html=1;rounded=0;labelBackgroundColor=default;fontFamily=Helvetica;fontColor=default;strokeColor=default;fillColor=default;entryX=0.5;entryY=1;entryDx=0;entryDy=0;startArrow=none;exitX=0.5;exitY=0;exitDx=0;exitDy=0;" edge="1" parent="1" source="LCl7SwJlQsZYBwVPoc9T-18" target="LCl7SwJlQsZYBwVPoc9T-25">
          <mxGeometry width="50" height="50" relative="1" as="geometry">
            <mxPoint x="340" y="220" as="sourcePoint" />
            <mxPoint x="435" y="180" as="targetPoint" />
          </mxGeometry>
        </mxCell>
        <mxCell id="LCl7SwJlQsZYBwVPoc9T-18" value="C(2, 1)" style="whiteSpace=wrap;html=1;rounded=1;shadow=1;labelBackgroundColor=none;strokeWidth=1;fontFamily=Verdana;fontSize=12;align=center;fillColor=#d5e8d4;strokeColor=#82b366;fontColor=default;" vertex="1" parent="1">
          <mxGeometry x="555" y="280" width="70" height="20" as="geometry" />
        </mxCell>
        <mxCell id="LCl7SwJlQsZYBwVPoc9T-70" value="" style="endArrow=none;html=1;rounded=0;labelBackgroundColor=default;fontFamily=Helvetica;fontColor=default;strokeColor=default;fillColor=default;entryX=0.394;entryY=0.95;entryDx=0;entryDy=0;exitX=0.5;exitY=0;exitDx=0;exitDy=0;entryPerimeter=0;" edge="1" parent="1" source="LCl7SwJlQsZYBwVPoc9T-26" target="LCl7SwJlQsZYBwVPoc9T-18">
          <mxGeometry width="50" height="50" relative="1" as="geometry">
            <mxPoint x="340" y="220" as="sourcePoint" />
            <mxPoint x="480" y="180" as="targetPoint" />
          </mxGeometry>
        </mxCell>
        <mxCell id="LCl7SwJlQsZYBwVPoc9T-72" value="" style="endArrow=none;html=1;rounded=0;labelBackgroundColor=default;fontFamily=Helvetica;fontColor=default;strokeColor=default;fillColor=default;entryX=0.75;entryY=1;entryDx=0;entryDy=0;startArrow=none;exitX=0.5;exitY=0;exitDx=0;exitDy=0;" edge="1" parent="1" source="LCl7SwJlQsZYBwVPoc9T-24" target="LCl7SwJlQsZYBwVPoc9T-25">
          <mxGeometry width="50" height="50" relative="1" as="geometry">
            <mxPoint x="635" y="220" as="sourcePoint" />
            <mxPoint x="735" y="190" as="targetPoint" />
          </mxGeometry>
        </mxCell>
        <mxCell id="LCl7SwJlQsZYBwVPoc9T-73" value="" style="endArrow=none;html=1;rounded=0;labelBackgroundColor=default;fontFamily=Helvetica;fontColor=default;strokeColor=default;fillColor=default;startArrow=none;entryX=0.578;entryY=1.021;entryDx=0;entryDy=0;entryPerimeter=0;exitX=0.5;exitY=0;exitDx=0;exitDy=0;" edge="1" parent="1" source="LCl7SwJlQsZYBwVPoc9T-27" target="LCl7SwJlQsZYBwVPoc9T-20">
          <mxGeometry width="50" height="50" relative="1" as="geometry">
            <mxPoint x="240" y="300" as="sourcePoint" />
            <mxPoint x="120" y="320" as="targetPoint" />
          </mxGeometry>
        </mxCell>
        <mxCell id="LCl7SwJlQsZYBwVPoc9T-75" value="" style="endArrow=none;html=1;rounded=0;labelBackgroundColor=default;fontFamily=Helvetica;fontColor=default;strokeColor=default;fillColor=default;entryX=0.5;entryY=1;entryDx=0;entryDy=0;startArrow=none;exitX=0.598;exitY=0.079;exitDx=0;exitDy=0;exitPerimeter=0;" edge="1" parent="1" source="LCl7SwJlQsZYBwVPoc9T-20" target="LCl7SwJlQsZYBwVPoc9T-8">
          <mxGeometry width="50" height="50" relative="1" as="geometry">
            <mxPoint x="115" y="270" as="sourcePoint" />
            <mxPoint x="83" y="261" as="targetPoint" />
          </mxGeometry>
        </mxCell>
        <mxCell id="LCl7SwJlQsZYBwVPoc9T-76" value="" style="endArrow=none;html=1;rounded=0;labelBackgroundColor=default;fontFamily=Helvetica;fontColor=default;strokeColor=default;fillColor=default;startArrow=none;entryX=0.573;entryY=1.093;entryDx=0;entryDy=0;entryPerimeter=0;exitX=0.569;exitY=-0.093;exitDx=0;exitDy=0;exitPerimeter=0;" edge="1" parent="1" source="LCl7SwJlQsZYBwVPoc9T-23" target="LCl7SwJlQsZYBwVPoc9T-18">
          <mxGeometry width="50" height="50" relative="1" as="geometry">
            <mxPoint x="565" y="250" as="sourcePoint" />
            <mxPoint x="529.44" y="229.99999999999997" as="targetPoint" />
          </mxGeometry>
        </mxCell>
        <mxCell id="LCl7SwJlQsZYBwVPoc9T-80" value="C(3, 2)" style="whiteSpace=wrap;html=1;rounded=1;shadow=1;labelBackgroundColor=none;strokeWidth=1;fontFamily=Verdana;fontSize=12;align=center;fillColor=#f8cecc;strokeColor=#b85450;fontColor=default;" vertex="1" parent="1">
          <mxGeometry x="400" y="230" width="70" height="20" as="geometry" />
        </mxCell>
        <mxCell id="LCl7SwJlQsZYBwVPoc9T-81" value="" style="endArrow=none;html=1;rounded=0;labelBackgroundColor=default;fontFamily=Helvetica;fontColor=default;strokeColor=default;fillColor=default;entryX=0.5;entryY=0;entryDx=0;entryDy=0;startArrow=none;exitX=0.5;exitY=1;exitDx=0;exitDy=0;" edge="1" parent="1" target="LCl7SwJlQsZYBwVPoc9T-80" source="LCl7SwJlQsZYBwVPoc9T-5">
          <mxGeometry width="50" height="50" relative="1" as="geometry">
            <mxPoint x="260" y="185" as="sourcePoint" />
            <mxPoint x="185" y="155" as="targetPoint" />
          </mxGeometry>
        </mxCell>
        <mxCell id="LCl7SwJlQsZYBwVPoc9T-82" value="" style="endArrow=none;html=1;rounded=0;labelBackgroundColor=default;fontFamily=Helvetica;fontColor=default;strokeColor=default;fillColor=default;startArrow=none;exitX=0.5;exitY=0;exitDx=0;exitDy=0;entryX=0.643;entryY=0.892;entryDx=0;entryDy=0;entryPerimeter=0;" edge="1" parent="1" target="LCl7SwJlQsZYBwVPoc9T-80" source="LCl7SwJlQsZYBwVPoc9T-79">
          <mxGeometry width="50" height="50" relative="1" as="geometry">
            <mxPoint x="385" y="195" as="sourcePoint" />
            <mxPoint x="425" y="230" as="targetPoint" />
          </mxGeometry>
        </mxCell>
        <mxCell id="LCl7SwJlQsZYBwVPoc9T-24" value="C(2, 2)" style="whiteSpace=wrap;html=1;rounded=1;shadow=1;labelBackgroundColor=none;strokeWidth=1;fontFamily=Verdana;fontSize=12;align=center;fillColor=#fff2cc;strokeColor=#d6b656;fontColor=default;" vertex="1" parent="1">
          <mxGeometry x="640" y="280" width="75" height="20" as="geometry" />
        </mxCell>
        <mxCell id="LCl7SwJlQsZYBwVPoc9T-85" value="C(1, 0)" style="whiteSpace=wrap;html=1;rounded=1;shadow=1;labelBackgroundColor=none;strokeWidth=1;fontFamily=Verdana;fontSize=12;align=center;fillColor=#6a00ff;strokeColor=#3700CC;fontColor=#ffffff;" vertex="1" parent="1">
          <mxGeometry x="170" y="340" width="70" height="20" as="geometry" />
        </mxCell>
        <mxCell id="LCl7SwJlQsZYBwVPoc9T-86" value="" style="endArrow=none;html=1;rounded=0;labelBackgroundColor=default;fontFamily=Helvetica;fontColor=default;strokeColor=default;fillColor=default;entryX=0.5;entryY=1;entryDx=0;entryDy=0;exitX=0.643;exitY=-0.025;exitDx=0;exitDy=0;exitPerimeter=0;" edge="1" parent="1" source="LCl7SwJlQsZYBwVPoc9T-85" target="LCl7SwJlQsZYBwVPoc9T-20">
          <mxGeometry width="50" height="50" relative="1" as="geometry">
            <mxPoint x="140" y="301" as="sourcePoint" />
            <mxPoint x="182.58000000000015" y="270" as="targetPoint" />
          </mxGeometry>
        </mxCell>
        <mxCell id="LCl7SwJlQsZYBwVPoc9T-79" value="C(2, 2)" style="whiteSpace=wrap;html=1;rounded=1;shadow=1;labelBackgroundColor=none;strokeWidth=1;fontFamily=Verdana;fontSize=12;align=center;fillColor=#fff2cc;strokeColor=#d6b656;fontColor=default;" vertex="1" parent="1">
          <mxGeometry x="470" y="280" width="70" height="20" as="geometry" />
        </mxCell>
        <mxCell id="LCl7SwJlQsZYBwVPoc9T-88" value="C(2, 1)" style="whiteSpace=wrap;html=1;rounded=1;shadow=1;labelBackgroundColor=none;strokeWidth=1;fontFamily=Verdana;fontSize=12;align=center;fillColor=default;strokeColor=default;fontColor=default;" vertex="1" parent="1">
          <mxGeometry x="370" y="280" width="70" height="20" as="geometry" />
        </mxCell>
        <mxCell id="LCl7SwJlQsZYBwVPoc9T-90" value="C(1, 1)" style="whiteSpace=wrap;html=1;rounded=1;shadow=1;labelBackgroundColor=none;strokeWidth=1;fontFamily=Verdana;fontSize=12;align=center;fillColor=#008a00;strokeColor=#005700;fontColor=#ffffff;" vertex="1" parent="1">
          <mxGeometry x="420" y="340" width="70" height="20" as="geometry" />
        </mxCell>
        <mxCell id="LCl7SwJlQsZYBwVPoc9T-91" value="C(1, 0)" style="whiteSpace=wrap;html=1;rounded=1;shadow=1;labelBackgroundColor=none;strokeWidth=1;fontFamily=Verdana;fontSize=12;align=center;fillColor=#6a00ff;strokeColor=#3700CC;fontColor=#ffffff;" vertex="1" parent="1">
          <mxGeometry x="340" y="340" width="70" height="20" as="geometry" />
        </mxCell>
        <mxCell id="LCl7SwJlQsZYBwVPoc9T-92" value="" style="endArrow=none;html=1;rounded=0;labelBackgroundColor=default;fontFamily=Helvetica;fontColor=default;strokeColor=default;fillColor=default;exitX=0.5;exitY=1;exitDx=0;exitDy=0;" edge="1" parent="1" source="LCl7SwJlQsZYBwVPoc9T-88" target="LCl7SwJlQsZYBwVPoc9T-91">
          <mxGeometry width="50" height="50" relative="1" as="geometry">
            <mxPoint x="315" y="220" as="sourcePoint" />
            <mxPoint x="245" y="270" as="targetPoint" />
          </mxGeometry>
        </mxCell>
        <mxCell id="LCl7SwJlQsZYBwVPoc9T-93" value="" style="endArrow=none;html=1;rounded=0;labelBackgroundColor=default;fontFamily=Helvetica;fontColor=default;strokeColor=default;fillColor=default;exitX=0.5;exitY=1;exitDx=0;exitDy=0;entryX=0.602;entryY=0.079;entryDx=0;entryDy=0;entryPerimeter=0;" edge="1" parent="1" source="LCl7SwJlQsZYBwVPoc9T-88" target="LCl7SwJlQsZYBwVPoc9T-90">
          <mxGeometry width="50" height="50" relative="1" as="geometry">
            <mxPoint x="325" y="230" as="sourcePoint" />
            <mxPoint x="277" y="270" as="targetPoint" />
          </mxGeometry>
        </mxCell>
        <mxCell id="LCl7SwJlQsZYBwVPoc9T-94" value="" style="endArrow=none;html=1;rounded=0;labelBackgroundColor=default;fontFamily=Helvetica;fontColor=default;strokeColor=default;fillColor=default;entryX=0.619;entryY=-0.025;entryDx=0;entryDy=0;entryPerimeter=0;exitX=0.5;exitY=1;exitDx=0;exitDy=0;" edge="1" parent="1" source="LCl7SwJlQsZYBwVPoc9T-80" target="LCl7SwJlQsZYBwVPoc9T-88">
          <mxGeometry width="50" height="50" relative="1" as="geometry">
            <mxPoint x="385" y="160" as="sourcePoint" />
            <mxPoint x="330" y="210" as="targetPoint" />
          </mxGeometry>
        </mxCell>
        <mxCell id="LCl7SwJlQsZYBwVPoc9T-98" value="C(2, 1)" style="whiteSpace=wrap;html=1;rounded=1;shadow=1;labelBackgroundColor=none;strokeWidth=1;fontFamily=Verdana;fontSize=12;align=center;fillColor=default;strokeColor=default;fontColor=default;" vertex="1" parent="1">
          <mxGeometry x="250" y="280" width="60" height="20" as="geometry" />
        </mxCell>
        <mxCell id="LCl7SwJlQsZYBwVPoc9T-99" value="C(2, 1)" style="whiteSpace=wrap;html=1;rounded=1;shadow=1;labelBackgroundColor=none;strokeWidth=1;fontFamily=Verdana;fontSize=12;align=center;fillColor=default;strokeColor=default;fontColor=default;" vertex="1" parent="1">
          <mxGeometry x="370" y="280" width="70" height="20" as="geometry" />
        </mxCell>
        <mxCell id="LCl7SwJlQsZYBwVPoc9T-100" value="C(2, 1)" style="whiteSpace=wrap;html=1;rounded=1;shadow=1;labelBackgroundColor=none;strokeWidth=1;fontFamily=Verdana;fontSize=12;align=center;fillColor=#d5e8d4;strokeColor=#82b366;fontColor=default;" vertex="1" parent="1">
          <mxGeometry x="250" y="280" width="60" height="20" as="geometry" />
        </mxCell>
        <mxCell id="LCl7SwJlQsZYBwVPoc9T-101" value="C(2, 1)" style="whiteSpace=wrap;html=1;rounded=1;shadow=1;labelBackgroundColor=none;strokeWidth=1;fontFamily=Verdana;fontSize=12;align=center;fillColor=#d5e8d4;strokeColor=#82b366;fontColor=default;" vertex="1" parent="1">
          <mxGeometry x="370" y="280" width="70" height="20" as="geometry" />
        </mxCell>
      </root>
    </mxGraphModel>
  </diagram>
</mxfile>
